<svg width="787" height="587" viewBox="0 0 787 587" fill="none" xmlns="http://www.w3.org/2000/svg">
<path d="M0 586.667H786.667V-0.000127792H0V586.667Z" fill="#2D0533"/>
<path d="M786.667 370.896H0V-1.93437e-05H786.667H0V282.792H786.667V370.896Z" fill="#27042D"/>
<path d="M786.667 282.792H0V-1.47488e-05H786.667H0V187.62H786.667V282.792Z" fill="#230328"/>
<path d="M0 187.62H786.667V0.000120423H0V187.62Z" fill="#1E0223"/>
<path d="M0 97.1187H786.667V-5.06513e-06H0V97.1187Z" fill="#19021E"/>
<path d="M631.625 42.688H626.947V33.3333H631.625V42.688" fill="#FF2424"/>
<path d="M669.047 42.688H664.368V33.3333H669.047V42.688Z" fill="#FF2424"/>
<path d="M650.335 61.3984H645.657V56.7211H650.335V61.3984Z" fill="#FF2424"/>
<path d="M645.657 33.3335H631.625V28.6549H645.657V33.3335Z" fill="#FF2424"/>
<path d="M664.368 33.3335H650.334V28.6549H664.368V33.3335Z" fill="#FF2424"/>
<path d="M659.691 28.6548H655.013V23.9774H659.691V28.6548Z" fill="#FF2424"/>
<path d="M655.013 56.7212H640.98V52.0439H655.013V56.7212Z" fill="#FF2424"/>
<path d="M640.98 28.6548H636.303V23.9774H640.98V28.6548Z" fill="#FF2424"/>
<path d="M664.368 47.3652H645.657V42.6879H664.368V47.3652Z" fill="#FF2424"/>
<path d="M664.368 42.688H631.625V38.0107H664.368V42.688Z" fill="#FF2424"/>
<path d="M650.335 47.3652H631.625V42.6879H650.335V47.3652Z" fill="#FF2424"/>
<path d="M664.368 38.0107H631.625V33.3334H664.368V38.0107" fill="#FF2424"/>
<path d="M659.691 52.0439H636.303V47.3653H659.691V52.0439Z" fill="#FF2424"/>
<path d="M726.524 42.688H721.845V33.3333H726.524V42.688Z" fill="#FF2424"/>
<path d="M763.944 42.688H759.267V33.3333H763.944V42.688Z" fill="#FF2424"/>
<path d="M745.233 61.3984H740.556V56.7211H745.233V61.3984Z" fill="#FF2424"/>
<path d="M740.556 33.3335H726.524V28.6549H740.556V33.3335Z" fill="#FF2424"/>
<path d="M759.267 33.3335H745.233V28.6549H759.267V33.3335Z" fill="#FF2424"/>
<path d="M754.589 28.6548H749.912V23.9774H754.589V28.6548Z" fill="#FF2424"/>
<path d="M749.912 56.7212H735.879V52.0439H749.912V56.7212Z" fill="#FF2424"/>
<path d="M735.879 28.6548H731.201V23.9774H735.879V28.6548Z" fill="#FF2424"/>
<path d="M759.267 47.3652H740.556V42.6879H759.267V47.3652Z" fill="#FF2424"/>
<path d="M759.267 42.688H726.524V38.0107H759.267V42.688Z" fill="#1E1E1E"/>
<path d="M745.233 47.3652H726.524V42.6879H745.233V47.3652Z" fill="#FF2424"/>
<path d="M759.267 38.0107H726.524V33.3334H759.267V38.0107Z" fill="#1E1E1E"/>
<path d="M754.589 52.0439H731.201V47.3653H754.589V52.0439Z" fill="#FF2424"/>
<path d="M745.233 56.7212H740.556V47.3652H745.233V56.7212Z" fill="#19021E"/>
<path d="M754.589 47.3652H731.201V42.6879H754.589V47.3652Z" fill="#19021E"/>
<path d="M759.267 42.688H726.524V38.0107H759.267V42.688Z" fill="#19021E"/>
<path d="M749.912 52.0439H735.879V38.0106H749.912V52.0439Z" fill="#19021E"/>
<path d="M759.267 38.0107H726.524V33.3334H759.267V38.0107Z" fill="#19021E"/>
<path d="M735.879 33.3335H731.201V28.6549H735.879V33.3335Z" fill="#19021E"/>
<path d="M754.589 33.3335H749.912V28.6549H754.589V33.3335Z" fill="#19021E"/>
<path d="M745.233 38.0107H740.556V33.3334H745.233V38.0107Z" fill="#FF2424"/>
<path d="M679.096 42.688H674.419V33.3333H679.096V42.688Z" fill="#FF2424"/>
<path d="M716.517 42.688H711.84V33.3333H716.517V42.688Z" fill="#FF2424"/>
<path d="M697.807 61.3984H693.129V56.7211H697.807V61.3984Z" fill="#FF2424"/>
<path d="M693.129 33.3335H679.096V28.6549H693.129V33.3335Z" fill="#FF2424"/>
<path d="M711.84 33.3335H697.807V28.6549H711.84V33.3335Z" fill="#FF2424"/>
<path d="M707.161 28.6548H702.484V23.9774H707.161V28.6548Z" fill="#FF2424"/>
<path d="M702.484 56.7212H688.451V52.0439H702.484V56.7212Z" fill="#FF2424"/>
<path d="M688.451 28.6548H683.773V23.9774H688.451V28.6548Z" fill="#FF2424"/>
<path d="M711.84 47.3652H693.129V42.6879H711.84V47.3652Z" fill="#FF2424"/>
<path d="M711.84 42.688H679.096V38.0107H711.84V42.688Z" fill="#1E1E1E"/>
<path d="M697.807 47.3652H679.096V42.6879H697.807V47.3652Z" fill="#FF2424"/>
<path d="M711.84 38.0107H679.096V33.3334H711.84V38.0107Z" fill="#1E1E1E"/>
<path d="M707.161 52.0439H683.773V47.3653H707.161V52.0439Z" fill="#FF2424"/>
<path d="M711.84 42.688H679.096V38.0107H711.84V42.688Z" fill="#19021E"/>
<path d="M711.84 38.0107H679.096V33.3334H711.84V38.0107Z" fill="#19021E"/>
<path d="M688.451 33.3335H683.773V28.6549H688.451V33.3335Z" fill="#19021E"/>
<path d="M707.161 33.3335H702.484V28.6549H707.161V33.3335Z" fill="#19021E"/>
<path d="M697.807 38.0107H693.129V33.3334H697.807V38.0107Z" fill="#FF2424"/>
<path d="M391.953 362.257H398.191V349.784H391.953V362.257Z" fill="#8DCE00"/>
<path d="M398.191 399.679H404.428V362.257H398.191V399.679Z" fill="#8DCE00"/>
<path d="M385.717 399.679H391.953V362.257H385.717V399.679Z" fill="#8DCE00"/>
<path d="M391.953 399.679H398.191V368.495H391.953V399.679" fill="#8DCE00"/>
<path d="M379.48 399.679V412.152H410.664V399.679H379.48Z" fill="#8DCE00"/>
<path d="M429.375 418.389V424.626H448.085V418.389H429.375Z" fill="#8DCE00"/>
<path d="M373.243 412.152V424.626H416.901V412.152H373.243Z" fill="#8DCE00"/>
<path d="M373.243 424.627V430.863H416.901V424.627H373.243Z" fill="#8DCE00"/>
<path d="M385.717 424.627V430.863H404.428V424.627H385.717Z" fill="white"/>
<path d="M379.48 430.863V437.1H410.664V430.863H379.48Z" fill="#8DCE00"/>
<path d="M404.428 387.205H410.664V380.968H404.428V387.205Z" fill="#8DCE00"/>
<path d="M416.901 424.626H435.612V418.389H416.901V424.626Z" fill="#8DCE00"/>
<path d="M423.139 430.863H454.323V424.627H423.139V430.863Z" fill="#8DCE00"/>
<path d="M423.139 437.1H441.849V430.863H423.139V437.1Z" fill="white"/>
<path d="M379.48 443.336H410.664V437.1H379.48V443.336Z" fill="white"/>
<path d="M348.296 437.1H367.007V430.863H348.296V437.1Z" fill="white"/>
<path d="M454.323 443.336V424.627H448.085V443.336H454.323Z" fill="#8DCE00"/>
<path d="M342.059 443.336V424.627H335.821V443.336H342.059Z" fill="#8DCE00"/>
<path d="M360.769 418.389V424.626H342.059V418.389H360.769Z" fill="#8DCE00"/>
<path d="M367.007 430.863H335.821V424.627H367.007V430.863Z" fill="#8DCE00"/>
<path d="M354.532 424.626H373.243V418.389H354.532V424.626Z" fill="#8DCE00"/>
<path d="M379.48 387.205H385.717V380.968H379.48V387.205Z" fill="#8DCE00"/>
<path d="M379.48 399.679V412.152H385.717V399.679H379.48Z" fill="#80AF00"/>
<path d="M385.717 387.205V399.679H391.953V387.205H385.717Z" fill="#80AF00"/>
<path d="M379.48 418.389V424.626H391.953V418.389H379.48Z" fill="white"/>
<path d="M404.428 399.679V412.152H410.664V399.679H404.428Z" fill="#80AF00"/>
<path d="M398.191 387.205V399.679H404.428V387.205H398.191Z" fill="#80AF00"/>
<path d="M398.191 418.389V424.626H410.664V418.389H398.191Z" fill="white"/>
<path d="M391.953 349.784H398.191V343.547H391.953V349.784Z" fill="#CAF72B"/>
<path d="M398.191 368.495H404.428V362.257H398.191V368.495Z" fill="#80AF00"/>
<path d="M385.717 368.495H391.953V362.257H385.717V368.495Z" fill="#80AF00"/>
<path d="M416.901 405.916H423.139V399.679H416.901V405.916Z" fill="#8DCE00"/>
<path d="M429.375 418.389H435.612V412.152H429.375V418.389Z" fill="#8DCE00"/>
<path d="M441.849 405.916H448.085V399.679H441.849V405.916Z" fill="#8DCE00"/>
<path d="M435.612 412.152H441.849V380.968H435.612V412.152" fill="#8DCE00"/>
<path d="M423.139 412.152H429.375V380.968H423.139V412.152" fill="#8DCE00"/>
<path d="M429.375 412.152H435.612V380.968H429.375V412.152" fill="#8DCE00"/>
<path d="M429.375 380.968H435.612V374.73H429.375V380.968Z" fill="#8DCE00"/>
<path d="M429.375 374.73H435.612V368.494H429.375V374.73Z" fill="#CAF72B"/>
<path d="M435.612 387.205H441.849V380.968H435.612V387.205Z" fill="#80AF00"/>
<path d="M441.849 424.626H448.085V418.389H441.849V424.626Z" fill="#80AF00"/>
<path d="M342.059 424.626H348.296V418.389H342.059V424.626Z" fill="#80AF00"/>
<path d="M423.139 387.205H429.375V380.968H423.139V387.205Z" fill="#80AF00"/>
<path d="M429.375 393.441H435.612V380.968H429.375V393.441Z" fill="white"/>
<path d="M342.059 405.916H348.296V399.679H342.059V405.916Z" fill="#8DCE00"/>
<path d="M354.532 418.389H360.769V412.152H354.532V418.389Z" fill="#8DCE00"/>
<path d="M367.007 405.916H373.243V399.679H367.007V405.916Z" fill="#8DCE00"/>
<path d="M360.769 412.152H367.007V380.968H360.769V412.152" fill="#8DCE00"/>
<path d="M348.296 412.152H354.532V380.968H348.296V412.152" fill="#8DCE00"/>
<path d="M354.532 412.152H360.769V380.968H354.532V412.152" fill="#8DCE00"/>
<path d="M354.532 380.968H360.769V374.73H354.532V380.968Z" fill="#8DCE00"/>
<path d="M354.532 374.73H360.769V368.494H354.532V374.73Z" fill="#CAF72B"/>
<path d="M360.769 387.205H367.007V380.968H360.769V387.205Z" fill="#80AF00"/>
<path d="M348.296 387.205H354.532V380.968H348.296V387.205Z" fill="#80AF00"/>
<path d="M354.532 393.441H360.769V380.968H354.532V393.441Z" fill="white"/>
<path d="M435.612 405.916V412.152H441.849V405.916H435.612Z" fill="#80AF00"/>
<path d="M423.139 405.916V412.152H429.375V405.916H423.139Z" fill="#80AF00"/>
<path d="M416.901 418.389V424.626H423.139V418.389H416.901Z" fill="#80AF00"/>
<path d="M367.007 418.389V424.626H373.243V418.389H367.007Z" fill="#80AF00"/>
<path d="M360.769 405.916V412.152H367.007V405.916H360.769Z" fill="#80AF00"/>
<path d="M348.296 405.916V412.152H354.532V405.916H348.296Z" fill="#80AF00"/>
<path d="M391.953 380.968H398.191V362.257H391.953V380.968Z" fill="white"/>
<path d="M360.769 460.488H354.532V448.015H360.769V460.488" fill="#FFD112"/>
<path d="M367.007 454.25H360.769V441.777H367.007V454.25" fill="#FFD112"/>
<path d="M354.532 454.25H348.296V441.777H354.532V454.25" fill="#FFD112"/>
<path d="M360.769 454.25H354.532V441.777H360.769V454.25" fill="#FF9B25"/>
<path d="M435.612 460.488H429.375V448.015H435.612V460.488" fill="#FFD112"/>
<path d="M441.849 454.25H435.612V441.777H441.849V454.25" fill="#FFD112"/>
<path d="M429.375 454.25H423.139V441.777H429.375V454.25" fill="#FFD112"/>
<path d="M435.612 454.25H429.375V441.777H435.612V454.25" fill="#FF9B25"/>
<path d="M398.191 472.292H391.953V459.819H398.191V472.292Z" fill="#FFD112"/>
<path d="M410.664 459.819H404.428V447.345H410.664V459.819Z" fill="#FFD112"/>
<path d="M385.717 459.819H379.48V447.345H385.717V459.819Z" fill="#FFD112"/>
<path d="M404.428 466.056H398.191V453.581H404.428V466.056Z" fill="#FFD112"/>
<path d="M391.953 466.056H385.717V453.581H391.953V466.056Z" fill="#FFD112"/>
<path d="M398.191 466.056H391.953V453.581H398.191V466.056Z" fill="#FF9B25"/>
<path d="M391.953 335.168H398.191V322.695H391.953V335.168Z" fill="#FFD112"/>
<path d="M391.953 316.458H398.191V310.222H391.953V316.458" fill="#FFD112"/>
<path d="M391.953 304.936H398.191V298.699H391.953V304.936Z" fill="#FFD112"/>
<path d="M391.953 293.413H398.191V287.176H391.953V293.413Z" fill="#FFD112"/>
<path d="M391.953 281.891H398.191V275.655H391.953V281.891Z" fill="#FFD112"/>
<path d="M429.375 361.239H435.612V348.765H429.375V361.239Z" fill="#FFD112"/>
<path d="M429.375 342.528H435.612V336.292H429.375V342.528Z" fill="#FFD112"/>
<path d="M354.532 361.239H360.769V348.765H354.532V361.239Z" fill="#FFD112"/>
<path d="M354.532 342.528H360.769V336.292H354.532V342.528Z" fill="#FFD112"/>
<path d="M429.375 332.049H435.612V325.813H429.375V332.049Z" fill="#FFD112"/>
<path d="M354.532 332.049H360.769V325.813H354.532V332.049Z" fill="#FFD112"/>
<path d="M429.375 321.572H435.612V315.335H429.375V321.572Z" fill="#FFD112"/>
<path d="M354.532 321.572H360.769V315.335H354.532V321.572Z" fill="#FFD112"/>
<path d="M429.375 311.093H435.612V304.856H429.375V311.093Z" fill="#FFD112"/>
<path d="M354.532 311.093H360.769V304.856H354.532V311.093Z" fill="#FFD112"/>
<path d="M27.261 61.3984V23.9771H31.9386V61.3984H27.261Z" fill="#FFD112"/>
<path d="M50.6489 56.7212V23.9772H55.3265V56.7212H50.6489Z" fill="#FFD112"/>
<path d="M64.6821 56.7212V23.9772H69.3597V56.7212H64.6821" fill="#FFD112"/>
<path d="M27.261 56.7211H45.9714V61.3984H27.261V56.7211Z" fill="#FFD112"/>
<path d="M55.3267 56.7211H64.6824V61.3984H55.3267V56.7211Z" fill="#FFD112"/>
<path d="M41.2937 52.0439H45.9713V56.7212H41.2937V52.0439Z" fill="#FFD112"/>
<path d="M74.0376 61.3984V23.9771H78.7152V61.3984H74.0376Z" fill="#FFD112"/>
<path d="M74.0376 56.7211H92.7485V61.3984H74.0376V56.7211Z" fill="#FFD112"/>
<path d="M88.0703 52.0439H92.7484V56.7212H88.0703V52.0439Z" fill="#FFD112"/>
<path d="M102.265 56.7211H116.298V61.3984H102.265V56.7211Z" fill="#FFD112"/>
<path d="M106.942 61.3984V23.9771H111.62V61.3984H106.942Z" fill="#FFD112"/>
<path d="M102.265 28.6549H106.942V33.3335H102.265V28.6549Z" fill="#FFD112"/>
<path d="M135.008 42.688V28.6547H139.687V42.688H135.008" fill="#FFD112"/>
<path d="M130.331 47.3652V42.6879H135.008V47.3652H130.331Z" fill="#FFD112"/>
<path d="M120.976 38.0107V28.6548H125.653V38.0107H120.976Z" fill="#FFD112"/>
<path d="M135.008 28.6548H125.653V23.9774H135.008V28.6548Z" fill="#FFD112"/>
<path d="M120.976 56.7211H139.687V61.3984H120.976V56.7211Z" fill="#FFD112"/>
<path d="M125.653 47.3652H130.331V56.7212H125.653V47.3652Z" fill="#FFD112"/>
<path d="M86.6667 546.667V553.333H140V546.667H246.667V553.333H280V546.667H633.333V553.333H653.333H673.333V546.667H786.667V586.667H0V546.667H86.6667Z" fill="#EAAC68"/>
<path d="M0 580H786.667V573.333H0V580Z" fill="#DD9348"/>
<path d="M786.667 580H0V586.667H786.667V580Z" fill="#D88A3D"/>
<path d="M0 573.333H786.667V566.667H0V573.333Z" fill="#E19B52"/>
<path d="M0 566.667H786.667V560H0V566.667Z" fill="#E5A35D"/>
<path d="M680 546.667H786.667V540H680V546.667Z" fill="#D88A3D"/>
<path d="M693.333 540H766.667V533.333H693.333V540Z" fill="#D88A3D"/>
<path d="M706.667 533.333H753.333V526.667H706.667V533.333Z" fill="#D88A3D"/>
<path d="M740 520H746.667V526.667H733.333V520H740Z" fill="#D88A3D"/>
<path d="M726.667 520H733.333V526.667H720V520H726.667Z" fill="#D88A3D"/>
<path d="M733.333 540H753.333V546.667H713.333V540H733.333Z" fill="#C97A32"/>
<path d="M706.667 533.333H726.667V526.667H706.667V533.333Z" fill="#E5A35D"/>
<path d="M720 526.667H740V520H720V526.667Z" fill="#E5A35D"/>
<path d="M693.333 540H713.333V533.333H693.333V540Z" fill="#E5A35D"/>
<path d="M680 546.667H700V540H680V546.667Z" fill="#E5A35D"/>
<path d="M720 526.667H726.667V520H720V526.667Z" fill="#EAAC68"/>
<path d="M706.667 533.333H713.333V526.667H706.667V533.333Z" fill="#EAAC68"/>
<path d="M693.333 540H700V533.333H693.333V540Z" fill="#EAAC68"/>
<path d="M680 546.667H686.667V540H680V546.667Z" fill="#EAAC68"/>
<path d="M726.667 540H733.333V533.333H726.667V540Z" fill="#C97A32"/>
<path d="M333.333 546.667H426.667V540H333.333V546.667Z" fill="#D88A3D"/>
<path d="M346.667 540H420V533.333H346.667V540Z" fill="#D88A3D"/>
<path d="M360 533.333H406.667V526.667H360V533.333Z" fill="#D88A3D"/>
<path d="M393.333 520H400V526.667H386.667V520H393.333Z" fill="#D88A3D"/>
<path d="M380 520H386.667V526.667H373.333V520H380Z" fill="#D88A3D"/>
<path d="M393.333 540H420V546.667H366.667V540H393.333Z" fill="#C97A32"/>
<path d="M360 533.333H380V526.667H360V533.333Z" fill="#E5A35D"/>
<path d="M373.333 526.667H393.333V520H373.333V526.667Z" fill="#E5A35D"/>
<path d="M346.667 540H366.667V533.333H346.667V540Z" fill="#E5A35D"/>
<path d="M333.333 546.667H353.333V540H333.333V546.667Z" fill="#E5A35D"/>
<path d="M373.333 526.667H380V520H373.333V526.667Z" fill="#EAAC68"/>
<path d="M360 533.333H366.667V526.667H360V533.333Z" fill="#EAAC68"/>
<path d="M346.667 540H353.333V533.333H346.667V540Z" fill="#EAAC68"/>
<path d="M333.333 546.667H340V540H333.333V546.667Z" fill="#EAAC68"/>
<path d="M380 540H386.667V533.333H380V540Z" fill="#C97A32"/>
<path d="M400 540H406.667V533.333H400V540Z" fill="#C97A32"/>
<path d="M146.667 546.667H240V540H146.667V546.667Z" fill="#D88A3D"/>
<path d="M160 540H233.333V533.333H160V540Z" fill="#D88A3D"/>
<path d="M173.333 533.333H220V526.667H173.333V533.333Z" fill="#D88A3D"/>
<path d="M206.667 520H213.333V526.667H200V520H206.667Z" fill="#D88A3D"/>
<path d="M193.333 520H200V526.667H186.667V520H193.333Z" fill="#D88A3D"/>
<path d="M206.667 540H233.333V546.667H180V540H206.667Z" fill="#C97A32"/>
<path d="M173.333 533.333H193.333V526.667H173.333V533.333Z" fill="#E5A35D"/>
<path d="M186.667 526.667H206.667V520H186.667V526.667Z" fill="#E5A35D"/>
<path d="M160 540H180V533.333H160V540Z" fill="#E5A35D"/>
<path d="M146.667 546.667H166.667V540H146.667V546.667Z" fill="#E5A35D"/>
<path d="M186.667 526.667H193.333V520H186.667V526.667Z" fill="#EAAC68"/>
<path d="M173.333 533.333H180V526.667H173.333V533.333Z" fill="#EAAC68"/>
<path d="M160 540H166.667V533.333H160V540Z" fill="#EAAC68"/>
<path d="M146.667 546.667H153.333V540H146.667V546.667Z" fill="#EAAC68"/>
<path d="M193.333 540H200V533.333H193.333V540Z" fill="#C97A32"/>
<path d="M213.333 540H220V533.333H213.333V540Z" fill="#C97A32"/>
<path d="M513.333 546.667H620V540H513.333V546.667Z" fill="#D88A3D"/>
<path d="M460 540H593.333V533.333H460V540Z" fill="#D88A3D"/>
<path d="M513.333 533.333H580V526.667H513.333V533.333Z" fill="#D88A3D"/>
<path d="M440 546.667H546.667V540H440V546.667Z" fill="#D88A3D"/>
<path d="M486.667 526.667H560V520H486.667V526.667Z" fill="#D88A3D"/>
<path d="M466.667 533.333H513.333V526.667H466.667V533.333Z" fill="#D88A3D"/>
<path d="M493.333 533.333H513.333V526.667H493.333V533.333Z" fill="#C97A32"/>
<path d="M500 520H506.667V526.667H493.333V520H500Z" fill="#D88A3D"/>
<path d="M486.667 520H493.333V526.667H480V520H486.667Z" fill="#D88A3D"/>
<path d="M523.333 540H573.333V546.667H473.333V540H523.333Z" fill="#C97A32"/>
<path d="M466.667 533.333H486.667V526.667H466.667V533.333Z" fill="#E5A35D"/>
<path d="M533.333 520V526.667H480V520H533.333Z" fill="#E5A35D"/>
<path d="M453.333 540H473.333V533.333H453.333V540Z" fill="#E5A35D"/>
<path d="M440 546.667H460V540H440V546.667Z" fill="#E5A35D"/>
<path d="M480 526.667H486.667V520H480V526.667Z" fill="#EAAC68"/>
<path d="M466.667 533.333H473.333V526.667H466.667V533.333Z" fill="#EAAC68"/>
<path d="M453.333 540H460V533.333H453.333V540Z" fill="#EAAC68"/>
<path d="M440 546.667H446.667V540H440V546.667Z" fill="#EAAC68"/>
<path d="M486.667 540H493.333V533.333H486.667V540Z" fill="#C97A32"/>
<path d="M573.333 540H580V533.333H573.333V540Z" fill="#C97A32"/>
<path d="M513.333 540H566.667V533.333H513.333V540Z" fill="#C97A32"/>
<path d="M0 546.667H80.064V540H0V546.667Z" fill="#D88A3D"/>
<path d="M0 540H53.3973V533.333H0V540Z" fill="#D88A3D"/>
<path d="M0 533.333H40.064V526.667H0V533.333Z" fill="#D88A3D"/>
<path d="M0 526.667H20.0636V520H0V526.667Z" fill="#D88A3D"/>
<path d="M16.6984 540H33.3973V546.667H0V540H16.6984Z" fill="#C97A32"/>
<path d="M33.3975 540H40.0641V533.333H33.3975V540" fill="#C97A32"/>
<path d="M0.0639648 533.333H6.73064V526.667H0.0639648V533.333Z" fill="#C97A32"/>
<path d="M0 540H26.7307V533.333H0V540Z" fill="#C97A32"/>
<path d="M33.3975 553.333H60.1277V546.667H33.3975V553.333Z" fill="#D88A3D"/>
<path d="M53.4609 553.333H60.1276V546.667H53.4609V553.333Z" fill="#C97A32"/>
<path d="M280 546.667H286.667V540H280V546.667Z" fill="#C97A32"/>
<path d="M240 553.333H246.667V546.667H240V553.333Z" fill="#C97A32"/>
<path d="M140 553.333H146.667V546.667H140V553.333Z" fill="#C97A32"/>
<path d="M80.064 566.667H86.7306V560H80.064V566.667Z" fill="#C97A32"/>
<path d="M26.7307 580H33.3974V573.333H26.7307V580Z" fill="#C97A32"/>
<path d="M80.064 553.333H86.7306V546.667H80.064V553.333Z" fill="#C97A32"/>
<path d="M273.333 553.333H280V546.667H273.333V553.333Z" fill="#C97A32"/>
<path d="M293.333 546.667H313.333V540H293.333V546.667Z" fill="#C97A32"/>
<path d="M640.004 553.333H646.671V546.667H640.004V553.333Z" fill="#D88A3D"/>
<path d="M400 553.333H426.667V560H373.333V553.333H400Z" fill="#C97A32"/>
<path d="M390 553.333H406.667V560H373.333V553.333H390Z" fill="#D88A3D"/>
<path d="M213.333 553.333H220V560H206.667V553.333H213.333Z" fill="#D88A3D"/>
<path d="M216.667 560H233.333V566.667H200V560H216.667Z" fill="#C97A32"/>
<path d="M413.333 560H440V566.667H386.667V560H413.333Z" fill="#C97A32"/>
<path d="M420 566.667H426.667V560H420V566.667Z" fill="#D88A3D"/>
<path d="M440 566.667H453.333V560H440V566.667Z" fill="#D88A3D"/>
<path d="M193.333 560H200V553.333H193.333V560Z" fill="#C97A32"/>
<path d="M306.667 573.333H313.333V566.667H306.667V573.333Z" fill="#C97A32"/>
<path d="M200 566.667H206.667V560H200V566.667Z" fill="#D88A3D"/>
<path d="M186.667 566.667H193.333V560H186.667V566.667Z" fill="#D88A3D"/>
<path d="M600 560H613.333V566.667H586.667V560H600Z" fill="#C97A32"/>
<path d="M573.333 560H580V553.333H573.333V560Z" fill="#C97A32"/>
<path d="M466.667 573.333H473.333V566.667H466.667V573.333Z" fill="#C97A32"/>
<path d="M686.667 566.667H646.671V560H686.667V566.667Z" fill="#D88A3D"/>
<path d="M566.667 566.667H573.333V560H566.667V566.667Z" fill="#D88A3D"/>
<path d="M133.333 553.333H140V560H126.667V553.333H133.333Z" fill="#D88A3D"/>
<path d="M286.667 553.333H293.333V560H280V553.333H286.667Z" fill="#D88A3D"/>
<path d="M120 560H126.667V566.667H113.333V560H120Z" fill="#D88A3D"/>
<path d="M106.667 566.667H113.333V560H106.667V566.667Z" fill="#C97A32"/>
<path d="M686.667 573.333H693.333V566.667H686.667V573.333Z" fill="#D88A3D"/>
<path d="M733.333 573.333H740V566.667H733.333V573.333Z" fill="#D88A3D"/>
<path d="M685.087 115.829V109.593H691.324V103.356H697.56V97.1185H703.797H710.035H716.271V103.356H722.508V109.593H728.745V115.829H734.981V134.54H728.745V140.777H722.508V147.013H716.271V153.25H710.035H697.56V147.013H691.324V140.777H685.087V134.54H678.851V128.303V115.829H685.087" fill="#FFD112"/>
<path d="M691.324 109.593H697.56V103.356H691.324V109.593Z" fill="#FFEEA9"/>
<path d="M697.56 140.777H703.797V134.54H697.56V140.777Z" fill="#FFEEA9"/>
<path d="M703.797 122.066H710.035V115.829H703.797V122.066Z" fill="#FFEEA9"/>
<path d="M710.035 128.303H716.271V122.067H710.035V128.303Z" fill="#FFEEA9"/>
<path d="M716.271 109.593H722.508V103.356H716.271V109.593Z" fill="#FFEEA9"/>
<path d="M697.56 103.356H710.035V97.1186H697.56V103.356Z" fill="#FFEEA9"/>
<path d="M697.56 153.25H716.271V147.013H697.56V153.25Z" fill="#FF9B25"/>
<path d="M685.087 115.829H691.324V109.593H685.087V115.829Z" fill="#FFEEA9"/>
<path d="M716.271 140.777H722.508V134.54H716.271V140.777Z" fill="#FFEEA9"/>
<path d="M722.508 115.829H728.745V109.593H722.508V115.829Z" fill="#FFEEA9"/>
<path d="M728.745 134.54H734.982V115.829H728.745V134.54Z" fill="#FF9B25"/>
<path d="M678.851 128.303H685.087V115.829H678.851V128.303Z" fill="#FFEEA9"/>
<path d="M678.851 134.54H685.087V128.303H678.851V134.54Z" fill="#FFEEA9"/>
<path d="M722.508 140.777H728.745V128.303H722.508V140.777Z" fill="#FF9B25"/>
<path d="M716.271 122.066H722.508V115.829H716.271V122.066Z" fill="#FF9B25"/>
<path d="M697.56 128.303H703.797V122.067H697.56V128.303Z" fill="#FF9B25"/>
<path d="M691.324 134.54H697.56V128.303H691.324V134.54Z" fill="#FF9B25"/>
<path d="M691.324 147.013H697.56V140.777H691.324V147.013Z" fill="#FF9B25"/>
<path d="M710.035 147.013H722.508V140.777H710.035V147.013Z" fill="#FF9B25"/>
<path d="M703.797 140.777H710.035V128.303H703.797V140.777Z" fill="#FF9B25"/>
<path d="M107.416 478.444V472.207H113.653V465.971H119.89V459.734H126.127H132.364H138.601V465.971H144.837V472.207H151.075V478.444H157.312V497.155H151.075V503.392H144.837V509.628H138.601V515.865H132.364H119.89V509.628H113.653V503.392H107.416V497.155H101.18V490.917V478.444H107.416" fill="#FFD112"/>
<path d="M113.653 472.207H119.89V465.971H113.653V472.207Z" fill="#FFEEA9"/>
<path d="M119.89 503.392H126.127V497.155H119.89V503.392Z" fill="#FFEEA9"/>
<path d="M126.127 484.681H132.364V478.444H126.127V484.681Z" fill="#FFEEA9"/>
<path d="M132.364 490.917H138.601V484.681H132.364V490.917Z" fill="#FFEEA9"/>
<path d="M138.601 472.207H144.837V465.971H138.601V472.207Z" fill="#FFEEA9"/>
<path d="M119.89 465.971H132.364V459.733H119.89V465.971Z" fill="#FFEEA9"/>
<path d="M119.89 515.865H138.601V509.628H119.89V515.865Z" fill="#FF9B25"/>
<path d="M107.416 478.444H113.653V472.207H107.416V478.444Z" fill="#FFEEA9"/>
<path d="M138.601 503.392H144.837V497.155H138.601V503.392Z" fill="#FFEEA9"/>
<path d="M144.837 478.444H151.075V472.207H144.837V478.444Z" fill="#FFEEA9"/>
<path d="M151.075 497.155H157.312V478.444H151.075V497.155Z" fill="#FF9B25"/>
<path d="M101.18 490.917H107.416V478.444H101.18V490.917Z" fill="#FFEEA9"/>
<path d="M101.18 497.155H107.416V490.917H101.18V497.155Z" fill="#FFEEA9"/>
<path d="M144.837 503.392H151.075V490.917H144.837V503.392Z" fill="#FF9B25"/>
<path d="M138.601 484.681H144.837V478.444H138.601V484.681Z" fill="#FF9B25"/>
<path d="M119.89 490.917H126.127V484.681H119.89V490.917Z" fill="#FF9B25"/>
<path d="M113.653 497.155H119.89V490.917H113.653V497.155Z" fill="#FF9B25"/>
<path d="M113.653 509.628H119.89V503.392H113.653V509.628Z" fill="#FF9B25"/>
<path d="M132.364 509.628H144.837V503.392H132.364V509.628Z" fill="#FF9B25"/>
<path d="M126.127 503.392H132.364V490.917H126.127V503.392Z" fill="#FF9B25"/>
<path d="M43.4736 131.852V125.185H50.1402V118.519H56.8069V111.852H96.8069V118.519H103.474V125.185H110.14V131.852H116.807V138.519V145.185V151.852V171.852H110.14V178.519H103.474V185.185H96.8069V191.852H56.8069V185.185H50.1402V178.519H43.4736V171.852H36.8069V131.852H43.4736" fill="#581468"/>
<path d="M50.1401 145.186H56.8068V138.519H50.1401V145.186Z" fill="#631A75"/>
<path d="M63.4734 158.519H70.1401V151.852H63.4734V158.519" fill="#470A56"/>
<path d="M83.4734 151.852H90.1401V145.185H83.4734V151.852Z" fill="#631A75"/>
<path d="M76.8069 178.519H90.1402V171.852H76.8069V178.519Z" fill="#470A56"/>
<path d="M83.4734 178.519H90.1401V165.185H83.4734V178.519Z" fill="#470A56"/>
<path d="M83.4734 185.186H90.1401V178.519H83.4734V185.186Z" fill="#631A75"/>
<path d="M50.1401 171.852H56.8068V165.185H50.1401V171.852Z" fill="#631A75"/>
<path d="M50.1401 185.186H63.4735V178.519H50.1401V185.186Z" fill="#470A56"/>
<path d="M70.1401 125.186H76.8068V118.519H70.1401V125.186Z" fill="#631A75"/>
<path d="M36.8069 151.852H43.4736V131.852H36.8069V151.852Z" fill="#631A75"/>
<path d="M43.4734 131.852H50.1401V125.185H43.4734V131.852Z" fill="#631A75"/>
<path d="M76.8069 158.519H83.4736V151.852H76.8069V158.519Z" fill="#631A75"/>
<path d="M90.1401 145.186H96.8068V138.519H90.1401V145.186Z" fill="#470A56"/>
<path d="M96.8069 125.186H103.474V118.519H96.8069V125.186Z" fill="#631A75"/>
<path d="M56.8069 118.519H96.8069V111.852H56.8069V118.519" fill="#631A75"/>
<path d="M63.4734 131.852H70.1401V125.185H63.4734V131.852" fill="#631A75"/>
<path d="M96.8069 158.519H103.474V151.852H96.8069V158.519Z" fill="#470A56"/>
<path d="M96.8069 138.519H103.474V131.852H96.8069V138.519Z" fill="#631A75"/>
<path d="M103.871 131.852H110.538V125.185H103.871V131.852Z" fill="#631A75"/>
<path d="M70.1401 171.852H76.8068V158.519H70.1401V171.852Z" fill="#470A56"/>
<path d="M70.1401 118.519H83.4735V111.852H70.1401V118.519Z" fill="#581468"/>
<path d="M50.1401 125.186H56.8068V118.519H50.1401V125.186Z" fill="#631A75"/>
<path d="M63.4734 138.519H70.1401V131.852H63.4734V138.519" fill="#470A56"/>
<path d="M76.8069 138.519H83.4736V131.852H76.8069V138.519Z" fill="#470A56"/>
<path d="M56.8069 145.186H63.4736V131.852H56.8069V145.186Z" fill="#631A75"/>
<path d="M50.1401 151.852H56.8068V145.185H50.1401V151.852Z" fill="#470A56"/>
<path d="M43.4734 178.519H50.1401V171.852H43.4734V178.519Z" fill="#470A56"/>
<path d="M36.8069 171.852H43.4736V165.185H36.8069V171.852Z" fill="#470A56"/>
<path d="M90.1401 165.186H96.8068V158.519H90.1401V165.186Z" fill="#631A75"/>
<path d="M96.8069 151.852H103.474V145.185H96.8069V151.852Z" fill="#631A75"/>
<path d="M63.4734 151.852H70.1401V145.185H63.4734V151.852" fill="#631A75"/>
<path d="M110.14 171.852H116.807V138.519H110.14V171.852Z" fill="#470A56"/>
<path d="M56.8069 171.852H63.4736V165.185H56.8069V171.852Z" fill="#470A56"/>
<path d="M96.8069 178.519H110.14V171.852H96.8069V178.519Z" fill="#470A56"/>
<path d="M103.473 171.852H116.807V165.185H103.473V171.852Z" fill="#470A56"/>
<path d="M96.8069 165.186H103.474V158.519H96.8069V165.186Z" fill="#470A56"/>
<path d="M90.1401 185.186H103.473V178.519H90.1401V185.186Z" fill="#470A56"/>
<path d="M56.8069 191.852H96.8069V185.185H56.8069V191.852" fill="#470A56"/>
<path d="M650 441.759V435.092H656.667V428.425H663.333V421.759H703.333V428.425H710V435.092H716.667V441.759H723.333V448.425V455.092V461.759V481.759H716.667V488.425H710V495.092H703.333V501.759H663.333V495.092H656.667V488.425H650V481.759H643.333V441.759H650Z" fill="#581468"/>
<path d="M656.667 455.092H663.333V448.425H656.667V455.092Z" fill="#631A75"/>
<path d="M670 468.425H676.667V461.759H670V468.425Z" fill="#470A56"/>
<path d="M690 461.759H696.667V455.092H690V461.759Z" fill="#631A75"/>
<path d="M683.333 488.425H696.667V481.759H683.333V488.425Z" fill="#470A56"/>
<path d="M690 488.425H696.667V475.092H690V488.425Z" fill="#470A56"/>
<path d="M690 495.092H696.667V488.426H690V495.092Z" fill="#631A75"/>
<path d="M656.667 481.759H663.333V475.092H656.667V481.759Z" fill="#631A75"/>
<path d="M656.667 495.092H670V488.426H656.667V495.092Z" fill="#470A56"/>
<path d="M676.667 435.092H683.333V428.425H676.667V435.092Z" fill="#631A75"/>
<path d="M643.333 461.759H650V441.759H643.333V461.759Z" fill="#631A75"/>
<path d="M650 441.759H656.667V435.092H650V441.759Z" fill="#631A75"/>
<path d="M683.333 468.425H690V461.759H683.333V468.425Z" fill="#631A75"/>
<path d="M696.667 455.092H703.333V448.425H696.667V455.092Z" fill="#470A56"/>
<path d="M703.333 435.092H710V428.425H703.333V435.092Z" fill="#631A75"/>
<path d="M663.333 428.425H703.333V421.759H663.333V428.425Z" fill="#631A75"/>
<path d="M670 441.759H676.667V435.092H670V441.759Z" fill="#631A75"/>
<path d="M703.333 468.425H710V461.759H703.333V468.425Z" fill="#470A56"/>
<path d="M703.333 448.425H710V441.759H703.333V448.425Z" fill="#631A75"/>
<path d="M710.397 441.759H717.064V435.092H710.397V441.759Z" fill="#631A75"/>
<path d="M676.667 481.759H683.333V468.425H676.667V481.759Z" fill="#470A56"/>
<path d="M676.667 428.425H690V421.759H676.667V428.425Z" fill="#581468"/>
<path d="M656.667 435.092H663.333V428.425H656.667V435.092Z" fill="#631A75"/>
<path d="M670 448.425H676.667V441.759H670V448.425Z" fill="#470A56"/>
<path d="M683.333 448.425H690V441.759H683.333V448.425Z" fill="#470A56"/>
<path d="M663.333 455.092H670V441.759H663.333V455.092Z" fill="#631A75"/>
<path d="M656.667 461.759H663.333V455.092H656.667V461.759Z" fill="#470A56"/>
<path d="M650 488.425H656.667V481.759H650V488.425Z" fill="#470A56"/>
<path d="M643.333 481.759H650V475.092H643.333V481.759Z" fill="#470A56"/>
<path d="M696.667 475.092H703.333V468.426H696.667V475.092Z" fill="#631A75"/>
<path d="M703.333 461.759H710V455.092H703.333V461.759Z" fill="#631A75"/>
<path d="M670 461.759H676.667V455.092H670V461.759Z" fill="#631A75"/>
<path d="M716.667 481.759H723.333V448.425H716.667V481.759Z" fill="#470A56"/>
<path d="M663.333 481.759H670V475.092H663.333V481.759Z" fill="#470A56"/>
<path d="M703.333 488.425H716.667V481.759H703.333V488.425Z" fill="#470A56"/>
<path d="M710 481.759H723.333V475.092H710V481.759Z" fill="#470A56"/>
<path d="M703.333 475.092H710V468.426H703.333V475.092Z" fill="#470A56"/>
<path d="M696.667 495.092H710V488.426H696.667V495.092Z" fill="#470A56"/>
<path d="M663.333 501.759H703.333V495.092H663.333V501.759Z" fill="#470A56"/>
<path d="M394.765 56.7212V47.3665H399.444V56.7212H394.765Z" fill="#FFD112"/>
<path d="M399.515 56.7211H408.799V61.3984H399.515V56.7211Z" fill="#FFD112"/>
<path d="M399.515 23.9774H408.799V28.6548H399.515V23.9774Z" fill="#FFD112"/>
<path d="M404.121 38.0107H408.799V42.688H404.121V38.0107Z" fill="#FFD112"/>
<path d="M408.799 42.6879H413.476V56.7212H408.799V42.6879Z" fill="#FFD112"/>
<path d="M408.799 28.6548H413.476V38.0107H408.799V28.6548Z" fill="#FFD112"/>
<path d="M394.765 28.6548H399.444V38.0107H394.765V28.6548Z" fill="#FFD112"/>
<path d="M418.159 56.7212V47.3665H422.836V56.7212H418.159Z" fill="#FFD112"/>
<path d="M432.191 56.7212V38.0105H436.869V56.7212H432.191Z" fill="#FFD112"/>
<path d="M422.836 56.7211H432.191V61.3984H422.836V56.7211Z" fill="#FFD112"/>
<path d="M418.159 23.9774H436.869V28.6548H418.159V23.9774Z" fill="#FFD112"/>
<path d="M418.159 33.3334H432.191V38.0107H418.159V33.3334Z" fill="#FFD112"/>
<path d="M418.159 28.6548H422.836V38.0107H418.159V28.6548Z" fill="#FFD112"/>
<path d="M373.975 52.0439H369.297V47.3666H373.975V52.0439Z" fill="#FF9B25"/>
<path d="M373.975 38.0107H369.297V33.3334H373.975V38.0107Z" fill="#FF9B25"/>
<path d="M378.653 47.3667H369.297V38.0107H378.653V47.3667Z" fill="#FFBC27"/>
<path d="M383.331 52.0439H378.653V47.3666H383.331V52.0439Z" fill="#FF9B25"/>
<path d="M383.331 38.0107H378.653V33.3334H383.331V38.0107Z" fill="#FF9B25"/>
<path d="M383.331 52.0439V33.3333H388.008V52.0439H383.331Z" fill="#FF9B25"/>
<path d="M373.975 56.7211H378.653V61.3984H373.975V56.7211Z" fill="#FF9B25"/>
<path d="M373.975 23.9774H378.653V28.6548H373.975V23.9774Z" fill="#FF9B25"/>
<path d="M369.297 52.0439H383.331V56.7212H369.297V52.0439Z" fill="#FF9B25"/>
<path d="M369.297 28.6549H383.331V33.3335H369.297V28.6549Z" fill="#FF9B25"/>
<path d="M369.297 52.0439H364.62V47.3666H369.297V52.0439Z" fill="#FFD112"/>
<path d="M369.297 38.0107H364.62V33.3334H369.297V38.0107Z" fill="#FFD112"/>
<path d="M378.653 52.0439H373.975V47.3666H378.653V52.0439Z" fill="#FFD112"/>
<path d="M378.653 38.0107H373.975V33.3334H378.653V38.0107Z" fill="#FFD112"/>
<path d="M359.943 52.0439V33.3333H364.62V52.0439H359.943Z" fill="#FFD112"/>
<path d="M378.653 52.0439V33.3333H383.331V52.0439H378.653Z" fill="#FFD112"/>
<path d="M369.297 56.7211H373.975V61.3984H369.297V56.7211Z" fill="#FFD112"/>
<path d="M369.297 23.9774H373.975V28.6548H369.297V23.9774Z" fill="#FFD112"/>
<path d="M364.62 52.0439H378.653V56.7212H364.62V52.0439Z" fill="#FFD112"/>
<path d="M364.62 28.6549H378.653V33.3335H364.62V28.6549Z" fill="#FFD112"/>
<path d="M378.653 47.3667H373.975V42.688H378.653V47.3667Z" fill="#FF9B25"/>
<path d="M378.653 42.688H373.975V38.0107H378.653V42.688Z" fill="#FF9B25"/>
<path d="M364.62 47.3828V38.0108H369.297V47.3828H364.62Z" fill="#FF9B25"/>
<path d="M156.023 130.888H169.356V117.555H156.023V130.888Z" fill="white"/>
<path d="M156.023 117.555H169.356V110.888H156.023V117.555Z" fill="#762789"/>
<path d="M156.023 110.888H169.356V104.222H156.023V110.888Z" fill="#581468"/>
<path d="M156.023 104.221H169.356V97.5545H156.023V104.221Z" fill="#470A56"/>
<path d="M176.023 130.888V117.555H169.356V130.888H176.023Z" fill="#762789"/>
<path d="M182.689 130.888V117.555H176.023V130.888H182.689Z" fill="#581468"/>
<path d="M189.356 130.888V117.555H182.689V130.888H189.356Z" fill="#470A56"/>
<path d="M142.689 130.888V117.555H136.023V130.888H142.689Z" fill="#470A56"/>
<path d="M156.023 130.888V117.555H149.356V130.888H156.023Z" fill="#762789"/>
<path d="M149.356 130.888V117.555H142.689V130.888H149.356Z" fill="#581468"/>
<path d="M156.023 137.555H169.356V130.888H156.023V137.555Z" fill="#762789"/>
<path d="M156.023 144.221H169.356V137.555H156.023V144.221Z" fill="#581468"/>
<path d="M156.023 150.888H169.356V144.222H156.023V150.888Z" fill="#470A56"/>
<path d="M169.356 117.555H176.023V110.888H169.356V117.555Z" fill="#581468"/>
<path d="M142.689 117.555H149.356V110.888H142.689V117.555Z" fill="#470A56"/>
<path d="M142.689 137.555H149.356V130.888H142.689V137.555Z" fill="#470A56"/>
<path d="M169.356 110.888H176.023V104.222H169.356V110.888Z" fill="#470A56"/>
<path d="M149.356 110.888H156.023V104.222H149.356V110.888Z" fill="#470A56"/>
<path d="M149.356 144.221H156.023V137.555H149.356V144.221Z" fill="#470A56"/>
<path d="M169.356 144.221H176.023V137.555H169.356V144.221Z" fill="#470A56"/>
<path d="M176.023 117.555H182.689V110.888H176.023V117.555Z" fill="#470A56"/>
<path d="M176.023 137.555H182.689V130.888H176.023V137.555Z" fill="#470A56"/>
<path d="M149.356 117.555H156.023V110.888H149.356V117.555Z" fill="#581468"/>
<path d="M169.356 137.555H176.023V130.888H169.356V137.555Z" fill="#581468"/>
<path d="M149.356 137.555H156.023V130.888H149.356V137.555Z" fill="#581468"/>
<path d="M564.205 418.807H577.539V405.473H564.205V418.807Z" fill="white"/>
<path d="M564.205 405.474H577.539V398.807H564.205V405.474Z" fill="#762789"/>
<path d="M564.205 398.807H577.539V392.14H564.205V398.807Z" fill="#581468"/>
<path d="M564.205 392.14H577.539V385.473H564.205V392.14Z" fill="#470A56"/>
<path d="M584.205 418.807V405.473H577.539V418.807H584.205Z" fill="#762789"/>
<path d="M590.872 418.807V405.473H584.205V418.807H590.872Z" fill="#581468"/>
<path d="M597.539 418.807V405.473H590.872V418.807H597.539Z" fill="#470A56"/>
<path d="M550.872 418.807V405.473H544.205V418.807H550.872Z" fill="#470A56"/>
<path d="M564.205 418.807V405.473H557.539V418.807H564.205Z" fill="#762789"/>
<path d="M557.539 418.807V405.473H550.872V418.807H557.539Z" fill="#581468"/>
<path d="M564.205 425.473H577.539V418.806H564.205V425.473Z" fill="#762789"/>
<path d="M564.205 432.14H577.539V425.473H564.205V432.14Z" fill="#581468"/>
<path d="M564.205 438.807H577.539V432.14H564.205V438.807Z" fill="#470A56"/>
<path d="M577.539 405.474H584.205V398.807H577.539V405.474Z" fill="#581468"/>
<path d="M550.872 405.474H557.539V398.807H550.872V405.474Z" fill="#470A56"/>
<path d="M550.872 425.473H557.539V418.806H550.872V425.473Z" fill="#470A56"/>
<path d="M577.539 398.807H584.205V392.14H577.539V398.807Z" fill="#470A56"/>
<path d="M557.539 398.807H564.205V392.14H557.539V398.807Z" fill="#470A56"/>
<path d="M557.539 432.14H564.205V425.473H557.539V432.14Z" fill="#470A56"/>
<path d="M577.539 432.14H584.205V425.473H577.539V432.14Z" fill="#470A56"/>
<path d="M584.205 405.474H590.872V398.807H584.205V405.474Z" fill="#470A56"/>
<path d="M584.205 425.473H590.872V418.806H584.205V425.473Z" fill="#470A56"/>
<path d="M557.539 405.474H564.205V398.807H557.539V405.474Z" fill="#581468"/>
<path d="M577.539 425.473H584.205V418.806H577.539V425.473Z" fill="#581468"/>
<path d="M557.539 425.473H564.205V418.806H557.539V425.473Z" fill="#581468"/>
<path d="M277.808 95.4521H287.808V85.4521H277.808V95.4521Z" fill="white"/>
<path d="M277.808 85.4521H287.808V80.4521H277.808V85.4521Z" fill="#762789"/>
<path d="M277.808 80.4521H287.808V75.4521H277.808V80.4521Z" fill="#581468"/>
<path d="M277.808 75.4521H287.808V70.4521H277.808V75.4521Z" fill="#470A56"/>
<path d="M292.808 95.4521V85.4521H287.808V95.4521H292.808Z" fill="#762789"/>
<path d="M297.808 95.4521V85.4521H292.808V95.4521H297.808Z" fill="#581468"/>
<path d="M302.808 95.4521V85.4521H297.808V95.4521H302.808Z" fill="#470A56"/>
<path d="M267.808 95.4521V85.4521H262.808V95.4521H267.808Z" fill="#470A56"/>
<path d="M277.808 95.4521V85.4521H272.808V95.4521H277.808Z" fill="#762789"/>
<path d="M272.808 95.4521V85.4521H267.808V95.4521H272.808Z" fill="#581468"/>
<path d="M277.808 100.452H287.808V95.4521H277.808V100.452Z" fill="#762789"/>
<path d="M277.808 105.452H287.808V100.452H277.808V105.452Z" fill="#581468"/>
<path d="M277.808 110.452H287.808V105.452H277.808V110.452Z" fill="#470A56"/>
<path d="M287.808 85.4521H292.808V80.4521H287.808V85.4521Z" fill="#581468"/>
<path d="M267.808 85.4521H272.808V80.4521H267.808V85.4521Z" fill="#470A56"/>
<path d="M267.808 100.452H272.808V95.4521H267.808V100.452Z" fill="#470A56"/>
<path d="M287.808 80.4521H292.808V75.4521H287.808V80.4521Z" fill="#470A56"/>
<path d="M272.808 80.4521H277.808V75.4521H272.808V80.4521Z" fill="#470A56"/>
<path d="M272.808 105.452H277.808V100.452H272.808V105.452Z" fill="#470A56"/>
<path d="M287.808 105.452H292.808V100.452H287.808V105.452Z" fill="#470A56"/>
<path d="M292.808 85.4521H297.808V80.4521H292.808V85.4521Z" fill="#470A56"/>
<path d="M292.808 100.452H297.808V95.4521H292.808V100.452Z" fill="#470A56"/>
<path d="M272.808 85.4521H277.808V80.4521H272.808V85.4521Z" fill="#581468"/>
<path d="M287.808 100.452H292.808V95.4521H287.808V100.452Z" fill="#581468"/>
<path d="M272.808 100.452H277.808V95.4521H272.808V100.452Z" fill="#581468"/>
<path d="M735.664 415.474H742.331V408.807H735.664V415.474Z" fill="white"/>
<path d="M735.664 408.807H742.331V402.14H735.664V408.807Z" fill="#631A75"/>
<path d="M728.997 415.474H735.664V408.807H728.997V415.474Z" fill="#631A75"/>
<path d="M742.331 415.474H748.997V408.807H742.331V415.474Z" fill="#631A75"/>
<path d="M735.664 422.14H742.331V415.473H735.664V422.14Z" fill="#631A75"/>
<path d="M40.7085 490.376H47.3752V483.709H40.7085V490.376Z" fill="white"/>
<path d="M40.7085 483.709H47.3752V477.043H40.7085V483.709Z" fill="#631A75"/>
<path d="M34.0417 490.376H40.7084V483.709H34.0417V490.376Z" fill="#631A75"/>
<path d="M47.375 490.376H54.0417V483.709H47.375V490.376Z" fill="#631A75"/>
<path d="M40.7085 497.042H47.3752V490.376H40.7085V497.042Z" fill="#631A75"/>
<path d="M623.613 164.221H630.28V157.555H623.613V164.221Z" fill="white"/>
<path d="M623.613 157.555H630.28V150.888H623.613V157.555Z" fill="#631A75"/>
<path d="M616.947 164.221H623.613V157.555H616.947V164.221Z" fill="#631A75"/>
<path d="M630.28 164.221H636.947V157.555H630.28V164.221Z" fill="#631A75"/>
<path d="M623.613 170.888H630.28V164.222H623.613V170.888Z" fill="#631A75"/>
<path d="M483.759 413.248H490.425V406.581H483.759V413.248Z" fill="white"/>
<path d="M483.759 406.582H490.425V399.915H483.759V406.582Z" fill="#631A75"/>
<path d="M477.092 413.248H483.759V406.581H477.092V413.248Z" fill="#631A75"/>
<path d="M490.425 413.248H497.092V406.581H490.425V413.248Z" fill="#631A75"/>
<path d="M483.759 419.915H490.425V413.248H483.759V419.915Z" fill="#631A75"/>
<path d="M306.667 512.961H313.333V506.295H306.667V512.961Z" fill="white"/>
<path d="M306.667 506.295H313.333V499.628H306.667V506.295Z" fill="#631A75"/>
<path d="M300 512.961H306.667V506.295H300V512.961Z" fill="#631A75"/>
<path d="M313.333 512.961H320V506.295H313.333V512.961Z" fill="#631A75"/>
<path d="M306.667 519.628H313.333V512.961H306.667V519.628Z" fill="#631A75"/>
<path d="M236.667 167.229H243.333V160.563H236.667V167.229Z" fill="white"/>
<path d="M236.667 160.562H243.333V153.896H236.667V160.562Z" fill="#631A75"/>
<path d="M230 167.229H236.667V160.563H230V167.229Z" fill="#631A75"/>
<path d="M243.333 167.229H250V160.563H243.333V167.229Z" fill="#631A75"/>
<path d="M236.667 173.895H243.333V167.229H236.667V173.895Z" fill="#631A75"/>
<path d="M528.769 123.571H535.436V116.904H528.769V123.571Z" fill="white"/>
<path d="M528.769 116.904H535.436V110.237H528.769V116.904Z" fill="#631A75"/>
<path d="M522.103 123.571H528.769V116.904H522.103V123.571Z" fill="#631A75"/>
<path d="M535.436 123.571H542.103V116.904H535.436V123.571Z" fill="#631A75"/>
<path d="M528.769 130.237H535.436V123.571H528.769V130.237Z" fill="#631A75"/>
<path d="M117.316 234.829H123.983V228.162H117.316V234.829Z" fill="white"/>
<path d="M117.316 228.163H123.983V221.496H117.316V228.163Z" fill="#631A75"/>
<path d="M110.649 234.829H117.316V228.162H110.649V234.829Z" fill="#631A75"/>
<path d="M123.983 234.829H130.65V228.162H123.983V234.829Z" fill="#631A75"/>
<path d="M117.316 241.496H123.983V234.829H117.316V241.496Z" fill="#631A75"/>
<path d="M34.0417 223.535H40.7084V216.868H34.0417V223.535Z" fill="white"/>
<path d="M34.0417 216.868H40.7084V210.201H34.0417V216.868Z" fill="#631A75"/>
<path d="M27.375 223.535H34.0417V216.868H27.375V223.535Z" fill="#631A75"/>
<path d="M40.7085 223.535H47.3752V216.868H40.7085V223.535Z" fill="#631A75"/>
<path d="M34.0417 230.201H40.7084V223.535H34.0417V230.201Z" fill="#631A75"/>
<path d="M590 483.709H596.667V477.043H590V483.709Z" fill="white"/>
<path d="M590 477.042H596.667V470.376H590V477.042Z" fill="#631A75"/>
<path d="M583.333 483.709H590V477.043H583.333V483.709Z" fill="#631A75"/>
<path d="M596.667 483.709H603.333V477.043H596.667V483.709Z" fill="#631A75"/>
<path d="M590 490.376H596.667V483.709H590V490.376Z" fill="#631A75"/>
<path d="M267.431 415.474H274.097V408.807H267.431V415.474Z" fill="white"/>
<path d="M267.431 408.807H274.097V402.14H267.431V408.807Z" fill="#631A75"/>
<path d="M260.764 415.474H267.431V408.807H260.764V415.474Z" fill="#631A75"/>
<path d="M274.097 415.474H280.764V408.807H274.097V415.474Z" fill="#631A75"/>
<path d="M267.431 422.14H274.097V415.473H267.431V422.14Z" fill="#631A75"/>
<path d="M162.689 458.425H169.356V451.758H162.689V458.425Z" fill="white"/>
<path d="M162.689 451.759H169.356V445.092H162.689V451.759Z" fill="#631A75"/>
<path d="M156.023 458.425H162.689V451.758H156.023V458.425Z" fill="#631A75"/>
<path d="M169.356 458.425H176.023V451.758H169.356V458.425Z" fill="#631A75"/>
<path d="M162.689 465.092H169.356V458.426H162.689V465.092Z" fill="#631A75"/>
<path d="M401.739 221.527H408.405V214.86H401.739V221.527Z" fill="white"/>
<path d="M401.739 214.86H408.405V208.193H401.739V214.86Z" fill="#631A75"/>
<path d="M395.072 221.527H401.739V214.86H395.072V221.527Z" fill="#631A75"/>
<path d="M408.405 221.527H415.072V214.86H408.405V221.527Z" fill="#631A75"/>
<path d="M401.739 228.193H408.405V221.527H401.739V228.193Z" fill="#631A75"/>
<path d="M396.447 145.186H433.868V120.238H396.447V145.186Z" fill="#D05AED"/>
<path d="M396.447 151.421H433.868V145.185H396.447V151.421Z" fill="#FFD112"/>
<path d="M396.447 120.237H433.868V114H396.447V120.237Z" fill="#FFD112"/>
<path d="M440.105 145.186V120.238H433.868V145.186H440.105Z" fill="#FFD112"/>
<path d="M396.447 145.186V120.238H390.209V145.186H396.447Z" fill="#FFD112"/>
<path d="M402.684 138.948H408.92V132.711H402.684V138.948Z" fill="#2D0533"/>
<path d="M421.395 138.948H427.631V132.711H421.395V138.948Z" fill="#2D0533"/>
<path d="M402.684 132.711H408.92V126.474H402.684V132.711Z" fill="white"/>
<path d="M421.395 132.711H427.631V126.474H421.395V132.711Z" fill="white"/>
<path d="M427.631 157.659H433.868V151.421H427.631V157.659Z" fill="#D05AED"/>
<path d="M440.105 145.186H452.579V138.948H440.105V145.186Z" fill="#D05AED"/>
<path d="M440.105 132.711H452.579V126.474H440.105V132.711Z" fill="#BF3BE0"/>
<path d="M377.736 132.711H390.209V126.474H377.736V132.711Z" fill="#BF3BE0"/>
<path d="M446.341 126.473H465.052V120.237H446.341V126.473Z" fill="#D05AED"/>
<path d="M421.395 163.896H427.631V157.659H421.395V163.896Z" fill="#FFD112"/>
<path d="M452.579 151.421H458.816V145.185H452.579V151.421Z" fill="#FFD112"/>
<path d="M390.209 145.186H377.736V138.948H390.209V145.186Z" fill="#D05AED"/>
<path d="M377.736 151.421H371.5V145.185H377.736V151.421Z" fill="#FFD112"/>
<path d="M458.816 120.237H465.052V114H458.816V120.237Z" fill="#D05AED"/>
<path d="M446.341 120.237H452.579V114H446.341V120.237Z" fill="#D05AED"/>
<path d="M365.263 126.473H383.973V120.237H365.263V126.473Z" fill="#D05AED"/>
<path d="M377.736 120.237H383.973V114H377.736V120.237Z" fill="#D05AED"/>
<path d="M396.447 157.659H402.684V151.421H396.447V157.659Z" fill="#D05AED"/>
<path d="M402.684 163.896H408.92V157.659H402.684V163.896Z" fill="#FFD112"/>
<path d="M365.263 120.237H371.5V114H365.263V120.237Z" fill="#D05AED"/>
<path d="M246.237 294.25H264.948V288.013H246.237V294.25Z" fill="#E01010"/>
<path d="M246.237 263.037H277.421V256.8H246.237V263.037" fill="#E01010"/>
<path d="M283.659 288.013V263.067H277.421V288.013H283.659Z" fill="#E01010"/>
<path d="M246.237 288.013V263.067H240V288.013H246.237Z" fill="#E01010"/>
<path d="M246.237 288.013H277.421V263.067H246.237V288.013" fill="#FF2424"/>
<path d="M202.579 287.999H221.289V263.052H202.579V287.999Z" fill="#E01010"/>
<path d="M277.421 269.303H271.184V275.54H277.421V269.303Z" fill="white"/>
<path d="M258.711 269.303H252.473V275.54H258.711V269.303Z" fill="white"/>
<path d="M277.421 300.488V275.54H264.948V300.488H277.421Z" fill="#FF2424"/>
<path d="M258.711 275.525H271.184V269.288H258.711V275.525Z" fill="#2D0533"/>
<path d="M277.421 275.54H283.659V269.303H277.421V275.54Z" fill="#FF2424"/>
<path d="M258.711 300.488H264.948V294.251H258.711V300.488Z" fill="#E01010"/>
<path d="M252.473 306.724H271.184V300.488H252.473V306.724Z" fill="#FF2424"/>
<path d="M271.184 256.8H277.421V244.326H271.184V256.8" fill="white"/>
<path d="M264.948 244.327H271.184V238.089H264.948V244.327Z" fill="white"/>
<path d="M252.473 256.8H258.711V244.326H252.473V256.8Z" fill="white"/>
<path d="M246.237 244.327H252.473V238.089H246.237V244.327Z" fill="white"/>
<path d="M233.763 275.54H240V269.303H233.763V275.54Z" fill="#E01010"/>
<path d="M221.289 300.488H227.527V294.251H221.289V300.488Z" fill="#E01010"/>
<path d="M215.052 306.724H221.289V300.488H215.052V306.724Z" fill="#E01010"/>
<path d="M208.816 300.488H215.052V287.999H208.816V300.488Z" fill="#E01010"/>
<path d="M202.579 306.724H208.816V300.488H202.579V306.724Z" fill="#E01010"/>
<path d="M233.763 250.562H240V244.326H233.763V250.562Z" fill="#E01010"/>
<path d="M221.289 250.562H227.527V244.326H221.289V250.562Z" fill="#E01010"/>
<path d="M221.289 256.8H240V250.562H221.289V256.8Z" fill="#E01010"/>
<path d="M227.527 288.013H233.763V256.8H227.527V288.013Z" fill="#E01010"/>
<path d="M208.816 250.562H215.052V244.326H208.816V250.562Z" fill="#E01010"/>
<path d="M196.341 250.562H202.579V244.326H196.341V250.562Z" fill="#E01010"/>
<path d="M196.341 256.8H215.052V250.562H196.341V256.8Z" fill="#E01010"/>
<path d="M202.579 288.013H208.816V256.8H202.579V288.013Z" fill="#E01010"/>
<path d="M221.289 294.266H227.527V263.038H221.289V294.266Z" fill="#E01010"/>
<path d="M233.763 288.013V275.54H208.816V288.013H233.763Z" fill="#FF2424"/>
<path d="M717.821 344.088V324.915H673.521V344.088H717.821Z" fill="#FF9B25"/>
<path d="M695.672 334.501H727.628V302.544H695.672V334.501Z" fill="#FFD112"/>
<path d="M721.237 296.153H734.02V283.371H721.237V296.153Z" fill="#FFD112"/>
<path d="M721.237 296.153H727.628V289.761H721.237V296.153Z" fill="white"/>
<path d="M708.455 283.371H721.237V270.587H708.455V283.371Z" fill="#FFD112"/>
<path d="M708.455 283.371H714.845V276.979H708.455V283.371Z" fill="white"/>
<path d="M689.28 296.153H702.063V283.371H689.28V296.153Z" fill="#FFD112"/>
<path d="M667.984 350.48H680.768V337.697H667.984V350.48Z" fill="#FFD112"/>
<path d="M689.28 296.153H695.672V289.761H689.28V296.153Z" fill="white"/>
<path d="M667.984 356.871H674.376V350.48H667.984V356.871Z" fill="#FFD112"/>
<path d="M680.768 363.263H687.159V356.871H680.768V363.263Z" fill="#FFD112"/>
<path d="M682.889 324.915H689.28V312.132H682.889V324.915" fill="#FFD112"/>
<path d="M724.212 363.263H730.604V350.48H724.212V363.263" fill="#FFD112"/>
<path d="M676.497 312.132H682.889V305.74H676.497V312.132Z" fill="#FFD112"/>
<path d="M717.821 350.48H724.212V344.088H717.821V350.48Z" fill="#FFD112"/>
<path d="M705.039 363.263H711.429V350.48H705.039V363.263" fill="#FFD112"/>
<path d="M698.646 350.48H705.038V344.088H698.646V350.48Z" fill="#FFD112"/>
<path d="M670.105 312.132H676.497V305.74H670.105V312.132Z" fill="#FFD112"/>
<path d="M676.497 318.522H682.889V312.132H676.497V318.522" fill="#FFD112"/>
<path d="M661.593 363.263H667.984V356.871H661.593V363.263Z" fill="#FFD112"/>
<path d="M667.984 369.655H680.768V363.263H667.984V369.655Z" fill="#FFD112"/>
<path d="M661.593 356.871H667.984V350.48H661.593V356.871Z" fill="#FFD112"/>
<path d="M708.455 302.544H714.845V283.371H708.455V302.544Z" fill="#FF9B25"/>
<path d="M721.237 315.327H727.628V296.153H721.237V315.327Z" fill="#FF9B25"/>
<path d="M695.672 315.327H702.063V296.153H695.672V315.327Z" fill="#FF9B25"/>
<path d="M708.454 334.501V321.719H702.062V334.501H708.454" fill="#2D0533"/>
<path d="M78.5259 396.56H128.421V390.323H78.5259V396.56Z" fill="#D05AED"/>
<path d="M84.7632 402.797H122.185V396.56H84.7632V402.797Z" fill="#BF3BE0"/>
<path d="M91 409.033H115.947V402.797H91V409.033Z" fill="#B12FD1"/>
<path d="M72.2891 390.323H134.657V384.087H72.2891V390.323Z" fill="white"/>
<path d="M128.421 390.323H134.657V384.087H128.421V390.323Z" fill="#FFD112"/>
<path d="M78.5259 390.323H84.7629V384.087H78.5259V390.323Z" fill="#FFD112"/>
<path d="M91 390.323H97.2364V384.087H91V390.323Z" fill="#FFD112"/>
<path d="M103.473 390.323H109.71V384.087H103.473V390.323Z" fill="#FFD112"/>
<path d="M115.947 390.323H122.184V384.087H115.947V390.323Z" fill="#FFD112"/>
<path d="M109.71 415.271H115.947V409.033H109.71V415.271Z" fill="#FFD112"/>
<path d="M91 415.271H97.2364V409.033H91V415.271Z" fill="#FFD112"/>
<path d="M78.5259 346.665H128.421V352.903H78.5259V346.665Z" fill="#D05AED"/>
<path d="M84.7632 340.428H122.185V346.666H84.7632V340.428Z" fill="#BF3BE0"/>
<path d="M91 334.19H115.947V340.428H91V334.19Z" fill="#B12FD1"/>
<path d="M72.2891 352.903H134.657V359.139H72.2891V352.903Z" fill="white"/>
<path d="M128.421 352.903H134.657V359.139H128.421V352.903Z" fill="#FFD112"/>
<path d="M78.5259 352.903H84.7629V359.139H78.5259V352.903Z" fill="#FFD112"/>
<path d="M91 352.903H97.2364V359.139H91V352.903Z" fill="#FFD112"/>
<path d="M103.473 352.903H109.71V359.139H103.473V352.903Z" fill="#FFD112"/>
<path d="M115.947 352.903H122.184V359.139H115.947V352.903Z" fill="#FFD112"/>
<path d="M109.71 327.954H115.947V334.19H109.71V327.954Z" fill="#FFD112"/>
<path d="M91 327.954H97.2364V334.19H91V327.954Z" fill="#FFD112"/>
<path d="M134.657 384.087H140.895V377.85H134.657V384.087" fill="white"/>
<path d="M134.657 365.376H140.895V359.139H134.657V365.376" fill="white"/>
<path d="M147.132 377.85V365.376H140.895V377.85H147.132Z" fill="white"/>
<path d="M72.2892 384.087H66.0522V377.85H72.2892V384.087Z" fill="white"/>
<path d="M72.2892 365.376H66.0522V359.139H72.2892V365.376Z" fill="white"/>
<path d="M59.8149 377.85V365.376H66.052V377.85H59.8149Z" fill="white"/>
<path d="M115.947 377.85H128.421V365.376H115.947V377.85Z" fill="white"/>
<path d="M115.947 377.85H122.184V371.612H115.947V377.85Z" fill="#BF3BE0"/>
<path d="M91 377.85H103.473V365.376H91V377.85Z" fill="white"/>
<path d="M91 377.85H97.2364V371.612H91V377.85Z" fill="#BF3BE0"/>
<path d="M573.333 273.889H606.667V227.222H573.333V273.889Z" fill="#FF2424"/>
<path d="M580 280.556H600V273.889H580V280.556Z" fill="#FF2424"/>
<path d="M586.667 247.223H600V233.889H586.667V247.223Z" fill="#2D0533"/>
<path d="M586.667 253.889H600V247.222H586.667V253.889Z" fill="#2D0533"/>
<path d="M586.667 273.889H600V267.222H586.667V273.889Z" fill="#2D0533"/>
<path d="M593.333 240.556H600V233.889H593.333V240.556Z" fill="white"/>
<path d="M593.333 247.223H600V240.556H593.333V247.223Z" fill="white"/>
<path d="M606.667 260.556H613.333V233.889H606.667V260.556Z" fill="#8DCE00"/>
<path d="M566.667 260.556H580V233.889H566.667V260.556Z" fill="#8DCE00"/>
<path d="M566.667 260.556H573.333V233.889H566.667V260.556Z" fill="#80AF00"/>
<path d="M600 227.223H606.667V220.556H600V227.223Z" fill="white"/>
<path d="M580 227.223H586.667V220.556H580V227.223Z" fill="white"/>
<path d="M580 267.223H586.667V260.556H580V267.223Z" fill="#2D0533"/>
<path d="M573.333 273.889H580V260.556H573.333V273.889Z" fill="#E01010"/>
<path d="M606.667 220.556H613.333V213.889H606.667V220.556Z" fill="#8DCE00"/>
<path d="M573.333 220.556H580V213.889H573.333V220.556Z" fill="#8DCE00"/>
<path d="M560 300.556H566.667V293.889H560V300.556Z" fill="#8DCE00"/>
<path d="M526.667 293.889H533.333V287.222H526.667V293.889Z" fill="#8DCE00"/>
<path d="M566.667 307.223H573.333V300.556H566.667V307.223Z" fill="#8DCE00"/>
<path d="M520 287.223H526.667V280.556H520V287.223Z" fill="#8DCE00"/>
<path d="M546.667 307.223H553.333V293.889H546.667V307.223Z" fill="#80AF00"/>
<path d="M533.333 307.223H540V293.889H533.333V307.223Z" fill="#80AF00"/>
<path d="M526.667 260.556H560V213.889H526.667V260.556Z" fill="#FF2424"/>
<path d="M533.333 267.223H553.333V260.556H533.333V267.223Z" fill="#FF2424"/>
<path d="M540 233.889H553.333V220.556H540V233.889Z" fill="#2D0533"/>
<path d="M540 240.556H553.333V233.889H540V240.556Z" fill="#2D0533"/>
<path d="M540 260.556H553.333V253.889H540V260.556Z" fill="#2D0533"/>
<path d="M546.667 227.223H553.333V220.556H546.667V227.223Z" fill="white"/>
<path d="M546.667 233.889H553.333V227.222H546.667V233.889Z" fill="white"/>
<path d="M560 247.223H566.667V220.556H560V247.223Z" fill="#8DCE00"/>
<path d="M520 247.223H533.333V220.556H520V247.223Z" fill="#8DCE00"/>
<path d="M520 247.223H526.667V220.556H520V247.223Z" fill="#80AF00"/>
<path d="M553.333 213.889H560V207.222H553.333V213.889Z" fill="white"/>
<path d="M533.333 213.889H540V207.222H533.333V213.889Z" fill="white"/>
<path d="M533.333 253.889H540V247.222H533.333V253.889Z" fill="#2D0533"/>
<path d="M526.667 260.864H533.333V247.223H526.667V260.864Z" fill="#E01010"/>
<path d="M560 207.223H566.667V200.556H560V207.223Z" fill="#8DCE00"/>
<path d="M526.667 207.223H533.333V200.556H526.667V207.223Z" fill="#8DCE00"/>
<path d="M560 293.889V280.556H533.333V293.889H560Z" fill="#FF2424"/>
<path d="M533.333 280.556H540V267.223H533.333V280.556Z" fill="white"/>
<path d="M560 273.889V280.556H573.333V273.889H560Z" fill="white"/>
</svg>
